<?xml version='1.0' encoding='UTF-8'?>
<svg xmlns="http://www.w3.org/2000/svg" xmlns:xlink="http://www.w3.org/1999/xlink" xmlns:inkscape="http://www.inkscape.org/namespaces/inkscape" width="1080" height="264" viewBox="0 0 1080 264" role="img" aria-labelledby="title desc">
 <title id="title">Frameleaf — horizontal logo with tagline</title>
 <desc id="desc">Native vector artwork: paths, shapes and gradients only. Lettering is outlined. No embedded images, font files, scripts or external resources.</desc>
 <defs>
  <linearGradient id="frame-gradient" gradientUnits="userSpaceOnUse" x1="15" y1="8" x2="226" y2="237">
   <stop offset="0" stop-color="#86f345"/><stop offset="0.25" stop-color="#36ec72"/>
   <stop offset="0.57" stop-color="#00c4d6"/><stop offset="0.76" stop-color="#00c7b0"/>
   <stop offset="1" stop-color="#00d874"/>
  </linearGradient>
  <linearGradient id="leaf-gradient" gradientUnits="userSpaceOnUse" x1="103" y1="101" x2="136" y2="240">
   <stop offset="0" stop-color="#56f260"/><stop offset="0.5" stop-color="#21de73"/>
   <stop offset="1" stop-color="#00bc9e"/>
  </linearGradient>
  <linearGradient id="dot-gradient" x1="0.3" y1="0" x2="0.65" y2="1">
   <stop offset="0" stop-color="#57f482"/><stop offset="0.6" stop-color="#09dfa5"/>
   <stop offset="1" stop-color="#00bedc"/>
  </linearGradient>
  <linearGradient id="wordmark-leaf" gradientUnits="userSpaceOnUse" x1="490" y1="0" x2="660" y2="124">
   <stop offset="0" stop-color="#60f35e"/><stop offset="0.6" stop-color="#35e56a"/>
   <stop offset="1" stop-color="#0fd570"/>
  </linearGradient>
  <path id="frame-path" d="M 67 2 H 171 C 207 2 236 31 236 67 V 172 C 236 208 207 237 171 237 H 130 C 145 230 158 219 169 205 C 190 202 205 189 205 168 V 71 C 205 50 188 34 167 34 H 72 C 51 34 34 51 34 72 V 166 C 34 182 37 192 47 200 L 48 235 C 21 228 2 203 2 171 V 68 C 2 31 30 2 67 2 Z"/>
  <path id="leaf-path" d="M 174 102 C 147 102 128 101 112 106 C 89 112 72 124 61 140 C 49 157 45 177 46 200 L 48 235 C 60 201 83 172 119 147 C 94 173 77 202 66 239 C 101 239 128 229 149 208 C 169 188 175 159 174 129 Z"/>
  <g id="symbol-color" aria-label="Frameleaf symbol">
   <use xlink:href="#frame-path" fill="url(#frame-gradient)"/>
   <use xlink:href="#leaf-path" fill="url(#leaf-gradient)"/>
   <circle cx="172.5" cy="66.5" r="16.5" fill="url(#dot-gradient)"/>
  </g>
  <g id="wordmark-color" fill-rule="evenodd" transform="translate(-5 -5)" aria-label="Frameleaf">
   <path fill="#f7f9fc" d="M7.0 5.0H86.0Q88.0 5.0 88.0 7.0V28.0Q88.0 30.0 86.0 30.0H35.0V56.0H79.0Q81.0 56.0 81.0 58.0V78.0Q81.0 80.0 79.0 80.0H35.0V126.0Q35.0 128.0 33.0 128.0H7.0Q5.0 128.0 5.0 126.0V7.0Q5.0 5.0 7.0 5.0ZM93.0 40.0H115.0Q117.0 40.0 117.0 42.0V54.0C122.0 44.0 132.0 39.0 146.0 39.0H148.0Q150.0 39.0 150.0 41.0V64.0Q150.0 66.0 148.0 65.0C131.0 61.0 119.0 72.0 119.0 90.0V126.0Q119.0 128.0 117.0 128.0H93.0Q91.0 128.0 91.0 126.0V42.0Q91.0 40.0 93.0 40.0ZM192.0 39.0C204.0 39.0 213.0 43.0 219.0 51.0V42.0Q219.0 40.0 221.0 40.0H243.0Q245.0 40.0 245.0 42.0V126.0Q245.0 128.0 243.0 128.0H221.0Q219.0 128.0 219.0 126.0V117.0C212.0 125.0 203.0 129.0 192.0 129.0C167.0 129.0 150.0 111.0 150.0 84.0C150.0 57.0 167.0 39.0 192.0 39.0ZM197.0 63.0C184.0 63.0 177.0 72.0 177.0 84.0C177.0 97.0 184.0 106.0 197.0 106.0C210.0 106.0 219.0 97.0 219.0 84.0C219.0 72.0 210.0 63.0 197.0 63.0ZM256.0 40.0H278.0Q280.0 40.0 280.0 42.0V51.0C286.0 43.0 294.0 39.0 304.0 39.0C316.0 39.0 325.0 43.0 332.0 52.0C339.0 43.0 349.0 39.0 360.0 39.0C380.0 39.0 392.0 50.0 392.0 72.0V126.0Q392.0 128.0 390.0 128.0H367.0Q365.0 128.0 365.0 126.0V81.0C365.0 68.0 361.0 62.0 353.0 62.0C344.0 62.0 338.0 69.0 338.0 82.0V126.0Q338.0 128.0 336.0 128.0H313.0Q311.0 128.0 311.0 126.0V81.0C311.0 68.0 307.0 62.0 299.0 62.0C289.0 62.0 282.0 70.0 282.0 83.0V126.0Q282.0 128.0 280.0 128.0H256.0Q254.0 128.0 254.0 126.0V42.0Q254.0 40.0 256.0 40.0ZM445.0 39.0C474.0 39.0 490.0 57.0 490.0 86.0V90.0Q490.0 92.0 488.0 92.0H426.0C429.0 103.0 438.0 108.0 448.0 108.0C457.0 108.0 466.0 104.0 472.0 99.0Q473.0 98.0 475.0 100.0L486.0 110.0Q488.0 112.0 486.0 114.0C476.0 124.0 464.0 129.0 447.0 129.0C417.0 129.0 398.0 111.0 398.0 84.0C398.0 58.0 417.0 39.0 445.0 39.0ZM427.0 73.0H463.0C460.0 64.0 454.0 59.0 445.0 59.0C436.0 59.0 430.0 64.0 427.0 73.0Z"/>
   <path fill="url(#wordmark-leaf)" d="M498.0 5.0H522.0Q524.0 5.0 524.0 7.0V126.0Q524.0 128.0 522.0 128.0H498.0Q496.0 128.0 496.0 126.0V7.0Q496.0 5.0 498.0 5.0ZM573.445652173913 39.0C600.8695652173913 39.0 616.0 57.0 616.0 86.0V90.0Q616.0 92.0 614.1086956521739 92.0H555.4782608695652C558.3152173913044 103.0 566.8260869565217 108.0 576.2826086956521 108.0C584.7934782608695 108.0 593.304347826087 104.0 598.9782608695652 99.0Q599.9239130434783 98.0 601.8152173913044 100.0L612.2173913043479 110.0Q614.1086956521739 112.0 612.2173913043479 114.0C602.7608695652174 124.0 591.4130434782609 129.0 575.3369565217391 129.0C546.9673913043479 129.0 529.0 111.0 529.0 84.0C529.0 58.0 546.9673913043479 39.0 573.445652173913 39.0ZM556.4239130434783 73.0H590.4673913043479C587.6304347826087 64.0 581.9565217391305 59.0 573.445652173913 59.0C564.9347826086956 59.0 559.2608695652174 64.0 556.4239130434783 73.0ZM659.6736842105263 39.0C671.2947368421053 39.0 680.0105263157894 43.0 685.8210526315789 51.0V42.0Q685.8210526315789 40.0 687.7578947368421 40.0H709.0631578947368Q711.0 40.0 711.0 42.0V126.0Q711.0 128.0 709.0631578947368 128.0H687.7578947368421Q685.8210526315789 128.0 685.8210526315789 126.0V117.0C679.0421052631579 125.0 670.3263157894737 129.0 659.6736842105263 129.0C635.4631578947368 129.0 619.0 111.0 619.0 84.0C619.0 57.0 635.4631578947368 39.0 659.6736842105263 39.0ZM664.5157894736842 63.0C651.9263157894737 63.0 645.1473684210526 72.0 645.1473684210526 84.0C645.1473684210526 97.0 651.9263157894737 106.0 664.5157894736842 106.0C677.1052631578948 106.0 685.8210526315789 97.0 685.8210526315789 84.0C685.8210526315789 72.0 677.1052631578948 63.0 664.5157894736842 63.0ZM758.0 5.0H770.0Q772.0 5.0 772.0 7.0V27.0Q772.0 29.0 770.0 29.0H763.0C755.0 29.0 751.0 34.0 751.0 42.0V44.0H769.0Q771.0 44.0 771.0 46.0V65.0Q771.0 67.0 769.0 67.0H751.0V126.0Q751.0 128.0 749.0 128.0H727.0Q725.0 128.0 725.0 126.0V67.0H717.0Q715.0 67.0 715.0 65.0V46.0Q715.0 44.0 717.0 44.0H725.0V40.0C725.0 17.0 737.0 5.0 758.0 5.0Z"/>
  </g>
  </defs>
 <use xlink:href="#symbol-color" transform="translate(12 12) scale(1)"/><use xlink:href="#wordmark-color" transform="translate(294 51) scale(1)"/><g aria-label="YOUR MEMORIES GROW FURTHER"><path fill="#c0d7ee" d="M454.2158 223H455.5342V216.7012L460.9443 208.4492H459.4111L456.3057 213.2051C455.8174 213.957 455.3486 214.709 454.8799 215.4609C454.4111 214.709 453.9521 213.957 453.4541 213.2051L450.3291 208.4492H448.7959L454.2158 216.7012ZM474.215 223.2051C477.9846 223.2051 480.6311 220.1289 480.6311 215.7344C480.6311 211.3301 477.9846 208.2441 474.215 208.2441C470.4455 208.2441 467.799 211.3301 467.799 215.7344C467.799 220.1191 470.4455 223.2051 474.215 223.2051ZM474.215 221.9648C471.3342 221.9648 469.1174 219.6309 469.1174 215.7344C469.1174 211.8086 471.3537 209.4844 474.215 209.4844C477.0764 209.4844 479.3127 211.8184 479.3127 215.7344C479.3127 219.6406 477.0764 221.9648 474.215 221.9648ZM494.1752 223.2051C497.4564 223.2051 499.7025 221.0273 499.7025 218.0488V208.4492H498.3744V217.9512C498.3744 220.2754 496.7143 221.9648 494.1752 221.9648C491.6459 221.9648 489.976 220.2754 489.976 217.9512V208.4492H488.6576V218.0488C488.6576 221.0176 490.9037 223.2051 494.1752 223.2051ZM508.3834 223H509.7018V217.1016H513.4713C513.5494 217.1016 513.6373 217.1016 513.7154 217.1016L516.8697 223H518.4029L515.1021 216.8867C517.026 216.3594 518.2467 214.875 518.2467 212.7754C518.2467 210.1387 516.3912 208.4492 513.5592 208.4492H508.3834ZM509.7018 215.9102V209.6406H513.5201C515.6002 209.6406 516.9381 210.8516 516.9381 212.7754C516.9381 214.6895 515.6002 215.9102 513.5396 215.9102ZM537.0635 223H538.3721V213.6738C538.3721 212.707 538.3525 211.5547 538.3232 210.4414C538.8311 211.7305 539.2803 212.873 539.6123 213.6738L543.4795 223H544.5928L548.4502 213.6738C548.792 212.8535 549.2607 211.6426 549.7588 210.3047C549.7393 211.457 549.7197 212.668 549.7197 213.6738V223H551.0186V208.4492H549.2119L545.1104 218.5762C544.8271 219.2891 544.3779 220.4414 544.0557 221.2715C543.7432 220.4414 543.2939 219.2891 543.001 218.5762L538.8604 208.4492H537.0635ZM559.8459 223H569.0842V221.8086H561.1643V216.1543H568.4592V214.9629H561.1643V209.6406H569.0842V208.4492H559.8459ZM577.101 223H578.4096V213.6738C578.4096 212.707 578.39 211.5547 578.3607 210.4414C578.8686 211.7305 579.3178 212.873 579.6498 213.6738L583.517 223H584.6303L588.4877 213.6738C588.8295 212.8535 589.2982 211.6426 589.7963 210.3047C589.7768 211.457 589.7572 212.668 589.7572 213.6738V223H591.0561V208.4492H589.2494L585.1479 218.5762C584.8646 219.2891 584.4154 220.4414 584.0932 221.2715C583.7807 220.4414 583.3314 219.2891 583.0385 218.5762L578.8979 208.4492H577.101ZM605.6451 223.2051C609.4146 223.2051 612.0611 220.1289 612.0611 215.7344C612.0611 211.3301 609.4146 208.2441 605.6451 208.2441C601.8756 208.2441 599.2291 211.3301 599.2291 215.7344C599.2291 220.1191 601.8756 223.2051 605.6451 223.2051ZM605.6451 221.9648C602.7643 221.9648 600.5475 219.6309 600.5475 215.7344C600.5475 211.8086 602.7838 209.4844 605.6451 209.4844C608.5064 209.4844 610.7428 211.8184 610.7428 215.7344C610.7428 219.6406 608.5064 221.9648 605.6451 221.9648ZM620.2342 223H621.5525V217.1016H625.3221C625.4002 217.1016 625.4881 217.1016 625.5662 217.1016L628.7205 223H630.2537L626.9529 216.8867C628.8768 216.3594 630.0975 214.875 630.0975 212.7754C630.0975 210.1387 628.242 208.4492 625.41 208.4492H620.2342ZM621.5525 215.9102V209.6406H625.3709C627.451 209.6406 628.7889 210.8516 628.7889 212.7754C628.7889 214.6895 627.451 215.9102 625.3904 215.9102ZM639.6377 208.4492H638.3193V223H639.6377ZM648.465 223H657.7033V221.8086H649.7834V216.1543H657.0783V214.9629H649.7834V209.6406H657.7033V208.4492H648.465ZM670.1928 223.2246C673.2201 223.2246 675.2514 221.5449 675.2514 219.1035C675.2514 217.1504 673.9818 215.9395 671.2572 215.2168L669.6068 214.7676C667.5072 214.2109 666.6381 213.4297 666.6381 212.1895C666.6381 210.5879 668.0736 209.4453 670.0756 209.4453C672.1361 209.4453 673.4838 210.6562 673.601 212.5215H674.9096C674.8119 209.9141 672.9564 208.2246 670.1146 208.2246C667.2631 208.2246 665.3295 209.8555 665.3295 212.248C665.3295 214.123 666.5209 215.2852 669.265 216.0078L670.8959 216.4473C673.0834 217.0332 673.9232 217.8242 673.9232 219.1523C673.9232 220.8809 672.4389 222.0137 670.1928 222.0137C667.8393 222.0137 666.4135 220.7539 666.3646 218.7324H665.017C665.0658 221.4668 667.0678 223.2246 670.1928 223.2246ZM699.7713 223.2051C703.2186 223.2051 705.7479 220.6953 705.7479 217.1504V215.959H700.2205V217.1504H704.4393C704.41 220.0605 702.4373 221.9648 699.7713 221.9648C696.6951 221.9648 694.6346 219.4258 694.6346 215.7344C694.6346 212.0137 696.7049 209.4844 699.7615 209.4844C702.1834 209.4844 703.9021 211.1445 704.3123 213.1074H705.6502C705.201 210.4707 702.9451 208.2441 699.7615 208.2441C695.9725 208.2441 693.3162 211.3008 693.3162 215.7344C693.3162 220.1289 695.9725 223.2051 699.7713 223.2051ZM714.0186 223H715.3369V217.1016H719.1064C719.1846 217.1016 719.2725 217.1016 719.3506 217.1016L722.5049 223H724.0381L720.7373 216.8867C722.6611 216.3594 723.8818 214.875 723.8818 212.7754C723.8818 210.1387 722.0264 208.4492 719.1943 208.4492H714.0186ZM715.3369 215.9102V209.6406H719.1553C721.2354 209.6406 722.5732 210.8516 722.5732 212.7754C722.5732 214.6895 721.2354 215.9102 719.1748 215.9102ZM737.8654 223.2051C741.635 223.2051 744.2814 220.1289 744.2814 215.7344C744.2814 211.3301 741.635 208.2441 737.8654 208.2441C734.0959 208.2441 731.4494 211.3301 731.4494 215.7344C731.4494 220.1191 734.0959 223.2051 737.8654 223.2051ZM737.8654 221.9648C734.9846 221.9648 732.7678 219.6309 732.7678 215.7344C732.7678 211.8086 735.0041 209.4844 737.8654 209.4844C740.7268 209.4844 742.9631 211.8184 742.9631 215.7344C742.9631 219.6406 740.7268 221.9648 737.8654 221.9648ZM755.1498 223H756.7611L759.4369 213.1562C759.7201 212.1016 759.9643 211.0469 760.2084 209.9922C760.4525 211.0469 760.7064 212.1016 760.9896 213.1562L763.6654 223H765.267L769.2904 208.4492H767.9428L765.3256 218.2051C765.0229 219.3672 764.7299 220.5195 764.4662 221.6719C764.2025 220.5195 763.9096 219.3672 763.6068 218.2051L761.0092 208.4492H759.4271L756.81 218.2051C756.5072 219.377 756.2143 220.5391 755.9506 221.7109C755.6869 220.5391 755.4037 219.377 755.0912 218.2051L752.474 208.4492H751.1361ZM787.3943 223H788.7127V216.1543H795.5975V214.9629H788.7127V209.6406H796.3006V208.4492H787.3943ZM809.5029 223.2051C812.7842 223.2051 815.0303 221.0273 815.0303 218.0488V208.4492H813.7021V217.9512C813.7021 220.2754 812.042 221.9648 809.5029 221.9648C806.9736 221.9648 805.3037 220.2754 805.3037 217.9512V208.4492H803.9854V218.0488C803.9854 221.0176 806.2314 223.2051 809.5029 223.2051ZM823.7111 223H825.0295V217.1016H828.799C828.8771 217.1016 828.965 217.1016 829.0432 217.1016L832.1975 223H833.7307L830.4299 216.8867C832.3537 216.3594 833.5744 214.875 833.5744 212.7754C833.5744 210.1387 831.7189 208.4492 828.8869 208.4492H823.7111ZM825.0295 215.9102V209.6406H828.8479C830.9279 209.6406 832.2658 210.8516 832.2658 212.7754C832.2658 214.6895 830.9279 215.9102 828.8674 215.9102ZM840.8002 209.6406H845.6635V223H846.9818V209.6406H851.8256V208.4492H840.8002ZM859.6568 223H860.9752V216.1543H869.2271V223H870.5553V208.4492H869.2271V214.9629H860.9752V208.4492H859.6568ZM879.3729 223H888.6111V221.8086H880.6912V216.1543H887.9861V214.9629H880.6912V209.6406H888.6111V208.4492H879.3729ZM896.6279 223H897.9463V217.1016H901.7158C901.7939 217.1016 901.8818 217.1016 901.96 217.1016L905.1143 223H906.6475L903.3467 216.8867C905.2705 216.3594 906.4912 214.875 906.4912 212.7754C906.4912 210.1387 904.6357 208.4492 901.8037 208.4492H896.6279ZM897.9463 215.9102V209.6406H901.7646C903.8447 209.6406 905.1826 210.8516 905.1826 212.7754C905.1826 214.6895 903.8447 215.9102 901.7842 215.9102Z"/></g>
</svg>
